<?xml version="1.0" encoding="utf-8"?>
<!-- Generator: Adobe Illustrator 24.0.1, SVG Export Plug-In . SVG Version: 6.00 Build 0)  -->
<svg version="1.1" id="Layer_1" xmlns="http://www.w3.org/2000/svg" xmlns:xlink="http://www.w3.org/1999/xlink" x="0px" y="0px"
	 viewBox="0 0 66.4 55.3" style="enable-background:new 0 0 66.4 55.3;" xml:space="preserve">
<style type="text/css">
	.st0{fill:#FFFFFF;}
</style>
<title>Asset 1</title>
<g id="Layer_2_1_">
	<g id="Layer_1-2">
		<path class="st0" d="M63.6,44.2H2.8c-0.7,0-1.4,0.3-2,0.8C0.3,45.6,0,46.3,0,47v5.5c0,0.8,0.3,1.5,0.8,2s1.2,0.8,2,0.8h60.8
			c0.7,0,1.4-0.3,1.9-0.8s0.8-1.2,0.8-2V47c0-0.8-0.3-1.5-0.8-2S64.3,44.2,63.6,44.2z"/>
		<path class="st0" d="M65.6,0.8c-0.5-0.5-1.2-0.8-2-0.8H2.8C2,0,1.3,0.3,0.8,0.8S0,2,0,2.8v5.5C0,9,0.3,9.7,0.8,10.2S2,11,2.8,11
			h60.8c1.5,0,2.7-1.2,2.8-2.8V2.8C66.4,2,66.1,1.3,65.6,0.8z"/>
		<path class="st0" d="M63.6,22.1H2.8c-0.7,0-1.5,0.3-2,0.9C0.3,23.5,0,24.2,0,24.9v5.5c0,0.7,0.3,1.4,0.8,1.9s1.2,0.8,2,0.8h60.8
			c1.5,0,2.7-1.3,2.8-2.8v-5.5c0-0.7-0.3-1.4-0.8-1.9C65.1,22.5,64.4,22.1,63.6,22.1z"/>
	</g>
</g>
</svg>
